# 3ds Max Wavefront OBJ Exporter v0.97b - (c)2007 guruware
# File Created: 22.06.2018 16:27:46

mtllib model_1StoryHouse.mtl

#
# object House
#

v  -112.6129 0.0350 85.0599
v  -112.6129 0.0350 -0.0000
v  112.6129 0.0350 -0.0000
v  112.6129 0.0350 85.0599
v  -112.6129 107.4942 85.0599
v  112.6129 107.4942 85.0599
v  112.6129 185.4212 -0.0000
v  -112.6129 185.4212 -0.0000
v  112.6129 107.4942 -0.0000
v  112.6129 0.0350 -85.0599
v  -112.6129 0.0350 -85.0599
v  -112.6129 107.4942 -85.0599
v  112.6129 107.4942 -85.0599
v  -112.6129 107.4942 -0.0000
# 14 vertices

vn -0.5774 -0.5774 0.5774
vn -0.7071 -0.7071 -0.0000
vn 0.7071 -0.7071 -0.0000
vn 0.5774 -0.5774 0.5774
vn -0.6267 0.3138 0.7132
vn 0.6267 0.3138 0.7132
vn 0.5822 0.8131 -0.0000
vn -0.5822 0.8131 -0.0000
vn 1.0000 0.0000 -0.0000
vn 0.5774 -0.5774 -0.5774
vn -0.5774 -0.5774 -0.5774
vn -0.6267 0.3138 -0.7132
vn 0.6267 0.3138 -0.7132
vn -1.0000 0.0000 -0.0000
# 14 vertex normals

vt 0.6919 0.5856 0.0000
vt 0.6919 0.4851 0.0000
vt 0.9580 0.4851 0.0000
vt 0.9580 0.5856 0.0000
vt 0.0639 0.0548 0.0000
vt 0.3762 0.0548 0.0000
vt 0.3762 0.1728 0.0000
vt 0.0639 0.1728 0.0000
vt 0.9580 0.7125 0.0000
vt 0.6919 0.7125 0.0000
vt 0.1244 0.7125 0.0000
vt 0.1244 0.8046 0.0000
vt 0.0239 0.7125 0.0000
vt 0.2249 0.5856 0.0000
vt 0.4909 0.5856 0.0000
vt 0.4909 0.7125 0.0000
vt 0.2249 0.7125 0.0000
vt 0.5914 0.5856 0.0000
vt 0.5914 0.7125 0.0000
vt 0.6919 0.3846 0.0000
vt 0.9580 0.3846 0.0000
vt 0.3762 0.2908 0.0000
vt 0.0639 0.2908 0.0000
vt 0.5914 0.8046 0.0000
vt 0.0239 0.5856 0.0000
vt 0.1244 0.5856 0.0000
# 26 texture coords

o House
g House
usemtl 01___Default
s 2
f 1/1/1 2/2/2 3/3/3 4/4/4 
s 4
f 5/5/5 6/6/6 7/7/7 8/8/8 
s 8
f 1/1/1 4/4/4 6/9/6 5/10/5 
s 16
f 9/11/9 7/12/7 6/13/6 
s 32
f 10/14/10 11/15/11 12/16/12 13/17/13 
s 64
f 11/15/11 2/18/2 14/19/14 12/16/12 
s 2
f 2/2/2 11/20/11 10/21/10 3/3/3 
s 4
f 7/7/7 13/22/13 12/23/12 8/8/8 
s 16
f 13/17/13 7/12/7 9/11/9 
s 64
f 2/18/2 1/1/1 5/10/5 14/19/14 
f 5/10/5 8/24/8 14/19/14 
f 14/19/14 8/24/8 12/16/12 
s 16
f 6/13/6 4/25/4 3/26/3 9/11/9 
f 9/11/9 3/26/3 10/14/10 13/17/13 
# 10 polygons - 4 triangles

