# 3ds Max Wavefront OBJ Exporter v0.97b - (c)2007 guruware
# File Created: 25.08.2018 19:20:30

mtllib Rockbed Model.mtl

#
# object Rock_Bed
#

v  -24.2654 75.8637 53.9489
v  -13.3513 75.8637 48.5011
v  -12.6438 75.8637 13.1489
v  -22.3551 75.8637 17.0402
v  -2.6494 75.8637 43.4777
v  9.0430 75.8637 38.1714
v  8.9723 75.8637 17.5132
v  -1.8004 75.8637 11.5041
v  -8.2126 75.8637 43.2504
v  -7.5051 75.8637 10.0624
v  -32.6325 75.8637 17.8892
v  -42.9099 75.8637 18.6452
v  -44.6079 75.8637 41.4967
v  -34.6135 75.8637 48.4303
v  -47.9085 75.8637 18.7159
v  -48.8990 75.8637 44.7512
v  -51.9109 75.8637 19.7065
v  -52.8307 75.8637 42.2749
v  -56.1940 75.8637 26.4986
v  -58.0335 75.8637 30.7425
v  25.3660 75.8637 42.5579
v  37.9848 75.8637 46.3785
v  32.8907 75.8637 9.0230
v  25.8612 75.8637 11.4993
v  49.7089 75.8637 40.0816
v  56.2431 75.8637 35.9781
v  53.2716 75.8637 27.5599
v  48.1524 75.8637 19.6357
v  43.1040 75.8637 43.8315
v  41.7597 75.8637 14.9661
v  15.9595 75.8637 15.3199
v  13.6954 75.8637 36.7563
v  7.0220 68.3154 19.4914
v  -2.0542 63.9710 16.2948
v  -37.8862 67.7983 39.1108
v  -29.5027 67.3307 45.3999
v  -6.7794 66.2229 14.0682
v  -11.0921 66.6345 15.8341
v  -19.3118 65.0345 21.0485
v  -27.8426 67.3307 19.8065
v  -36.4468 67.7983 20.9188
v  -20.7495 65.0345 47.9907
v  -11.6850 66.6345 45.4592
v  -7.3853 66.2229 44.1747
v  -2.6681 63.9710 39.4107
v  7.0813 68.3154 36.8029
v  -41.8789 67.8300 42.3168
v  -41.0489 67.8300 20.4993
v  -45.1737 67.9964 40.2417
v  -44.4029 67.9964 21.3294
v  -54.5091 68.3154 30.5775
v  -52.9676 68.3154 27.0212
v  12.2049 65.4248 42.0506
v  44.6082 68.3154 27.9105
v  42.8915 68.3154 21.2701
v  47.0984 68.3154 34.9649
v  20.7599 67.2092 40.4789
v  31.3345 67.1251 43.6805
v  35.9083 67.7913 41.5461
v  41.6227 68.3154 38.4037
v  34.7818 67.7913 17.3570
v  27.0656 67.1251 12.3767
v  21.1749 67.2092 14.4518
v  13.0714 65.6576 17.6534
v  2.0914 49.2319 24.4928
v  2.1218 49.2319 33.3432
v  -2.7152 33.9039 29.1283
v  -2.6961 33.9039 28.4065
v  18.8771 49.2319 25.4021
v  22.7055 49.2319 28.7970
v  23.9786 49.2319 32.4035
v  21.1792 49.2319 34.1616
v  17.1404 47.3825 23.4015
v  17.7164 47.3825 35.7681
v  11.6190 45.0320 25.4477
v  15.2407 45.0320 32.2670
v  9.3271 45.3288 21.9163
v  9.1149 45.3288 35.2225
v  6.0469 39.8543 26.0784
v  4.5229 39.8543 30.2117
v  -5.2939 41.8490 33.4035
v  -4.9448 41.8490 24.1957
v  -7.4725 43.3012 37.7687
v  -7.1693 43.3012 22.6230
v  -11.8607 37.6562 32.9270
v  -11.6176 37.6562 31.1824
v  -16.5817 45.7575 37.7384
v  -15.7330 45.7575 24.6539
v  -20.8925 47.4072 33.0788
v  -20.1071 47.4072 26.6668
v  -24.1308 47.5191 36.1622
v  -23.7065 47.5191 25.0080
v  -25.8153 48.1060 35.1013
v  -28.0443 49.2319 30.1605
v  -27.2562 49.2319 28.3423
v  -25.4212 48.1060 25.4324
v  6.4321 61.5847 19.8180
v  -2.2161 56.3868 19.3498
v  -33.5997 62.6548 37.5893
v  -26.2435 61.8890 43.4673
v  -6.3167 60.0748 16.6228
v  -10.1026 60.7489 17.5466
v  -17.3710 58.1286 23.6047
v  -24.7881 61.8890 21.0292
v  -32.3253 62.6548 22.3687
v  -18.5074 58.1286 44.1910
v  -10.6224 60.7489 43.5193
v  -6.8578 60.0748 43.9874
v  -2.6800 56.3868 36.8170
v  5.8303 63.5018 35.9302
v  -37.4021 62.7067 40.7644
v  -36.6744 62.7067 21.6366
v  -46.2010 63.9771 38.2621
v  -39.6149 62.9792 22.3643
v  -50.3523 63.5018 30.4723
v  -42.7616 63.5018 27.3544
v  10.8897 59.0704 41.0626
v  41.8234 63.5018 28.1341
v  34.5634 63.5018 22.3123
v  41.2666 63.5018 34.3188
v  17.8226 61.6901 39.1530
v  27.0934 61.5523 41.9599
v  31.3196 62.6434 40.0886
v  36.4660 63.5018 37.3337
v  34.6649 62.6434 18.8817
v  23.3509 61.5523 14.5153
v  18.1864 61.6901 14.8524
v  11.2297 59.1489 18.1362
v  3.9482 56.4182 22.6094
v  -2.4544 45.2264 23.8456
v  -27.2919 55.0859 35.3503
v  -21.4474 53.8814 40.6235
v  -5.6357 51.0276 20.3820
v  -8.6466 52.0879 20.0665
v  -14.5150 47.9661 27.3663
v  -20.2932 53.8814 22.8285
v  -26.2602 55.0859 24.5022
v  -15.2080 47.9661 38.5996
v  -9.0588 52.0879 40.6647
v  -6.0815 51.0276 36.5515
v  -2.6975 45.2264 33.0004
v  3.9894 56.4182 34.6460
v  -30.8143 55.1676 38.4798
v  -30.2372 55.1676 23.3102
v  -33.1051 55.5962 37.0370
v  -32.5692 55.5962 23.8873
v  -40.8229 56.4182 30.3175
v  -39.7511 56.4182 27.8448
v  7.2003 49.5711 30.4274
v  35.5527 56.4182 28.4632
v  32.5704 56.4182 23.8461
v  32.6849 56.4182 33.3681
v  13.5001 53.5684 37.2019
v  20.8526 53.3517 39.4280
v  24.5670 55.0679 37.9439
v  28.8777 56.4182 35.7591
v  23.7837 55.0679 21.1253
v  17.8844 53.3517 17.6625
v  13.7887 53.5684 19.1053
v  8.5194 49.5711 21.3314
# 160 vertices

vn -0.0717 0.4153 0.9068
vn 0.4461 0.6073 0.6574
vn -0.3537 0.6043 -0.7139
vn -0.1715 0.5925 -0.7871
vn 0.1550 0.5329 0.8319
vn 0.2693 0.6281 0.7300
vn 0.0286 0.7245 -0.6887
vn 0.3041 0.5367 -0.7871
vn 0.2044 0.8420 0.4993
vn -0.1309 0.4755 -0.8699
vn -0.0606 0.6102 -0.7899
vn -0.0252 0.6017 -0.7983
vn 0.1533 0.8525 0.4997
vn -0.4664 0.4735 0.7472
vn -0.1457 0.5458 -0.8251
vn -0.1578 0.4319 0.8880
vn -0.6137 0.3694 -0.6978
vn -0.7363 0.3494 0.5794
vn -0.7474 0.5387 -0.3889
vn -0.8893 0.4573 0.0099
vn -0.2534 0.6729 0.6950
vn 0.1841 0.4633 0.8669
vn 0.2223 0.4270 -0.8765
vn -0.2581 0.6543 -0.7108
vn 0.4659 0.4432 0.7658
vn 0.9260 0.2599 0.2738
vn 0.8504 0.3473 -0.3953
vn 0.6718 0.4345 -0.5999
vn 0.4230 0.4633 0.7788
vn 0.5172 0.4452 -0.7309
vn -0.2492 0.6712 -0.6981
vn -0.0420 0.9091 0.4144
vn 0.0701 -0.1900 -0.9793
vn 0.3528 -0.3561 -0.8653
vn 0.0720 -0.2272 0.9712
vn -0.4454 -0.5245 0.7256
vn -0.0667 -0.3871 -0.9196
vn -0.4244 -0.3180 -0.8478
vn -0.1967 -0.3885 -0.9002
vn -0.0201 -0.2299 -0.9730
vn -0.0260 -0.2904 -0.9565
vn -0.0296 -0.4892 0.8717
vn 0.2772 -0.2552 0.9263
vn 0.5234 0.0739 0.8489
vn 0.5026 -0.2804 0.8178
vn -0.2080 -0.1219 0.9705
vn 0.1031 -0.2048 0.9734
vn -0.0768 -0.2781 -0.9575
vn -0.5527 -0.4471 0.7033
vn -0.3574 -0.5034 -0.7867
vn -0.8412 -0.5185 0.1533
vn -0.6055 -0.6182 -0.5011
vn -0.2372 0.1300 0.9627
vn 0.7472 -0.6244 -0.2276
vn 0.5617 -0.6860 -0.4625
vn 0.5986 -0.7594 0.2548
vn -0.0266 -0.2201 0.9751
vn 0.0719 -0.3438 0.9363
vn 0.4234 -0.5755 0.6997
vn 0.4246 -0.6047 0.6738
vn 0.4752 -0.4266 -0.7695
vn 0.0841 -0.4054 -0.9103
vn -0.3455 -0.0147 -0.9383
vn -0.3375 -0.0333 -0.9407
vn 0.0010 -0.4033 -0.9151
vn -0.4085 -0.2103 0.8882
vn -0.0063 -0.9292 0.3695
vn 0.0135 -0.9336 -0.3581
vn 0.6004 -0.7994 -0.0201
vn 0.2678 -0.9380 -0.2201
vn 0.4190 -0.8838 0.2079
vn 0.4333 -0.8638 0.2571
vn 0.2382 -0.6367 -0.7334
vn -0.5396 -0.5033 0.6749
vn -0.1034 -0.9932 -0.0530
vn 0.5936 -0.8047 0.0072
vn -0.4380 -0.4765 -0.7623
vn -0.4120 -0.4716 0.7796
vn 0.1536 -0.9354 -0.3185
vn -0.4559 -0.8253 0.3334
vn 0.0114 -0.7769 0.6295
vn -0.1080 -0.7048 -0.7012
vn 0.3780 -0.4932 0.7835
vn -0.1343 -0.5730 -0.8085
vn -0.1663 -0.9486 0.2692
vn 0.0215 -0.9712 -0.2374
vn 0.6278 -0.6482 0.4309
vn 0.6273 -0.5613 -0.5399
vn -0.2617 -0.9415 0.2123
vn -0.2842 -0.8727 -0.3970
vn 0.2287 -0.6006 0.7662
vn 0.0737 -0.6702 -0.7385
vn -0.5162 -0.8268 0.2236
vn -0.4035 -0.9097 -0.0979
vn -0.6811 -0.7021 -0.2078
vn -0.4779 -0.7828 -0.3986
vn -0.1462 -0.1662 -0.9752
vn 0.2663 -0.3650 -0.8921
vn 0.0621 -0.2352 0.9700
vn -0.4376 -0.5221 0.7321
vn -0.0019 -0.3838 -0.9234
vn -0.4114 -0.3177 -0.8543
vn -0.1664 -0.3831 -0.9086
vn 0.0589 -0.1873 -0.9805
vn -0.0191 -0.2854 -0.9582
vn -0.0621 -0.4965 0.8658
vn -0.0009 -0.3132 0.9497
vn 0.3741 -0.2836 0.8829
vn 0.5980 -0.2602 0.7581
vn -0.2288 -0.1158 0.9666
vn 0.1958 -0.1237 0.9728
vn -0.0468 -0.2544 -0.9660
vn -0.6481 -0.4492 0.6150
vn -0.4819 -0.5929 -0.6452
vn -0.6698 -0.6719 -0.3160
vn -0.5348 -0.6028 -0.5921
vn -0.1928 -0.4695 0.8616
vn 0.7630 -0.5496 -0.3403
vn 0.7522 -0.6120 -0.2442
vn 0.5606 -0.7313 0.3886
vn 0.0494 -0.2581 0.9649
vn 0.0914 -0.3566 0.9298
vn 0.4520 -0.5918 0.6674
vn 0.4358 -0.6133 0.6587
vn 0.7866 -0.5025 -0.3587
vn 0.1442 -0.4369 -0.8879
vn -0.2674 -0.1129 -0.9569
vn -0.3781 -0.1083 -0.9194
vn 0.2651 -0.5087 -0.8191
vn 0.3716 -0.3537 -0.8584
vn 0.0389 -0.2535 0.9665
vn -0.3446 -0.4906 0.8004
vn 0.1516 -0.3695 -0.9168
vn -0.3443 -0.3152 -0.8844
vn -0.0529 -0.3597 -0.9316
vn 0.2890 -0.0526 -0.9559
vn -0.0215 -0.2871 -0.9576
vn -0.1056 -0.5055 0.8564
vn 0.4081 -0.2185 0.8864
vn 0.3094 -0.4879 0.8162
vn 0.3486 -0.3038 0.8867
vn 0.3025 -0.2456 0.9210
vn 0.0978 -0.2094 0.9729
vn -0.0018 -0.2182 -0.9759
vn -0.4835 -0.7131 0.5076
vn -0.3717 -0.5142 -0.7730
vn -0.5559 -0.8213 0.1283
vn -0.6148 -0.5776 -0.5370
vn -0.1734 -0.1783 0.9686
vn 0.6595 -0.7516 -0.0101
vn 0.5267 -0.5783 -0.6230
vn 0.5104 -0.6877 0.5163
vn -0.5740 0.1106 0.8113
vn 0.1102 -0.5163 0.8493
vn 0.5110 -0.6231 0.5921
vn 0.4602 -0.6317 0.6238
vn 0.4174 -0.6675 -0.6166
vn 0.0864 -0.5521 -0.8293
vn -0.2045 -0.3069 -0.9295
vn -0.3255 -0.3135 -0.8920
# 160 vertex normals

vt 0.6707 0.8938 0.0000
vt 0.5937 0.8634 0.0000
vt 0.5679 0.6246 0.0000
vt 0.6359 0.6452 0.0000
vt 0.5183 0.8357 0.0000
vt 0.4360 0.8067 0.0000
vt 0.4243 0.6669 0.0000
vt 0.4936 0.6199 0.0000
vt 0.5558 0.8309 0.0000
vt 0.5314 0.6068 0.0000
vt 0.7060 0.6449 0.0000
vt 0.7760 0.6439 0.0000
vt 0.8010 0.7975 0.0000
vt 0.7375 0.8503 0.0000
vt 0.8098 0.6414 0.0000
vt 0.8319 0.8170 0.0000
vt 0.8375 0.6458 0.0000
vt 0.8571 0.7979 0.0000
vt 0.8705 0.6892 0.0000
vt 0.8854 0.7168 0.0000
vt 0.3282 0.8461 0.0000
vt 0.2451 0.8794 0.0000
vt 0.2575 0.6237 0.0000
vt 0.3065 0.6363 0.0000
vt 0.1621 0.8437 0.0000
vt 0.1154 0.8198 0.0000
vt 0.1305 0.7611 0.0000
vt 0.1605 0.7045 0.0000
vt 0.2090 0.8652 0.0000
vt 0.2010 0.6691 0.0000
vt 0.3757 0.6562 0.0000
vt 0.4037 0.7999 0.0000
vt 0.4827 0.5480 0.0000
vt 0.4198 0.5480 0.0000
vt 0.4312 0.5039 0.0000
vt 0.4841 0.4786 0.0000
vt 0.6745 0.0549 0.0000
vt 0.7378 0.0551 0.0000
vt 0.7003 0.1094 0.0000
vt 0.6446 0.1047 0.0000
vt 0.5159 0.5480 0.0000
vt 0.5117 0.4917 0.0000
vt 0.6025 0.5480 0.0000
vt 0.5459 0.5480 0.0000
vt 0.5369 0.4941 0.0000
vt 0.5848 0.4848 0.0000
vt 0.6625 0.5480 0.0000
vt 0.6346 0.4982 0.0000
vt 0.7224 0.5480 0.0000
vt 0.6847 0.5009 0.0000
vt 0.6141 0.0549 0.0000
vt 0.5936 0.1181 0.0000
vt 0.5504 0.0549 0.0000
vt 0.5407 0.1088 0.0000
vt 0.5205 0.0549 0.0000
vt 0.5156 0.1112 0.0000
vt 0.4198 0.0549 0.0000
vt 0.4880 0.0549 0.0000
vt 0.4881 0.1243 0.0000
vt 0.4313 0.0990 0.0000
vt 0.7656 0.0551 0.0000
vt 0.7242 0.1130 0.0000
vt 0.7516 0.5480 0.0000
vt 0.7116 0.5011 0.0000
vt 0.7821 0.0552 0.0000
vt 0.7435 0.1119 0.0000
vt 0.8993 0.5493 0.0000
vt 0.8995 0.3331 0.0000
vt 0.8456 0.0550 0.0000
vt 0.8165 0.1103 0.0000
vt 0.8724 0.0548 0.0000
vt 0.8992 0.0546 0.0000
vt 0.8310 0.1261 0.0000
vt 0.3927 0.0549 0.0000
vt 0.4014 0.1158 0.0000
vt 0.1886 0.5478 0.0000
vt 0.1500 0.5480 0.0000
vt 0.1822 0.4853 0.0000
vt 0.2157 0.4925 0.0000
vt 0.1348 0.5453 0.0000
vt 0.1342 0.4545 0.0000
vt 0.3246 0.0549 0.0000
vt 0.3515 0.1054 0.0000
vt 0.2510 0.0549 0.0000
vt 0.2898 0.1059 0.0000
vt 0.2211 0.0549 0.0000
vt 0.2631 0.1020 0.0000
vt 0.1787 0.0551 0.0000
vt 0.2238 0.1071 0.0000
vt 0.1343 0.0551 0.0000
vt 0.2389 0.5480 0.0000
vt 0.2768 0.4921 0.0000
vt 0.2803 0.5480 0.0000
vt 0.3143 0.4970 0.0000
vt 0.3213 0.5480 0.0000
vt 0.3486 0.4975 0.0000
vt 0.3791 0.5480 0.0000
vt 0.3959 0.4884 0.0000
vt 0.4619 0.3282 0.0000
vt 0.4602 0.2103 0.0000
vt 0.4884 0.2997 0.0000
vt 0.4886 0.3052 0.0000
vt 0.3536 0.3133 0.0000
vt 0.3394 0.2818 0.0000
vt 0.3250 0.2264 0.0000
vt 0.3405 0.2238 0.0000
vt 0.3645 0.3560 0.0000
vt 0.3692 0.2211 0.0000
vt 0.3962 0.3355 0.0000
vt 0.3837 0.2348 0.0000
vt 0.4203 0.3242 0.0000
vt 0.4194 0.2330 0.0000
vt 0.4378 0.3266 0.0000
vt 0.4444 0.2598 0.0000
vt 0.5034 0.2533 0.0000
vt 0.5011 0.3276 0.0000
vt 0.5161 0.2449 0.0000
vt 0.5158 0.3385 0.0000
vt 0.5417 0.2778 0.0000
vt 0.5410 0.3143 0.0000
vt 0.5693 0.2311 0.0000
vt 0.5805 0.3536 0.0000
vt 0.6055 0.2366 0.0000
vt 0.6069 0.3331 0.0000
vt 0.6242 0.2368 0.0000
vt 0.6293 0.3502 0.0000
vt 0.6348 0.2367 0.0000
vt 0.6715 0.2367 0.0000
vt 0.6752 0.2499 0.0000
vt 0.6567 0.3473 0.0000
vt 0.4346 0.4647 0.0000
vt 0.4851 0.4344 0.0000
vt 0.6764 0.1414 0.0000
vt 0.6256 0.1364 0.0000
vt 0.5090 0.4559 0.0000
vt 0.5311 0.4598 0.0000
vt 0.5735 0.4445 0.0000
vt 0.6167 0.4665 0.0000
vt 0.6607 0.4709 0.0000
vt 0.5805 0.1584 0.0000
vt 0.5345 0.1431 0.0000
vt 0.5126 0.1470 0.0000
vt 0.4882 0.1685 0.0000
vt 0.4386 0.1270 0.0000
vt 0.6986 0.1433 0.0000
vt 0.6861 0.4712 0.0000
vt 0.7498 0.1350 0.0000
vt 0.7555 0.3486 0.0000
vt 0.7926 0.1414 0.0000
vt 0.7959 0.1697 0.0000
vt 0.4090 0.1529 0.0000
vt 0.2322 0.3451 0.0000
vt 0.2603 0.4615 0.0000
vt 0.2238 0.2849 0.0000
vt 0.3686 0.1376 0.0000
vt 0.3145 0.1384 0.0000
vt 0.2876 0.1343 0.0000
vt 0.2533 0.1365 0.0000
vt 0.2700 0.4610 0.0000
vt 0.3360 0.4645 0.0000
vt 0.3661 0.4653 0.0000
vt 0.4067 0.4505 0.0000
vt 0.4491 0.4346 0.0000
vt 0.4865 0.3693 0.0000
vt 0.6404 0.1888 0.0000
vt 0.5977 0.1831 0.0000
vt 0.5050 0.4031 0.0000
vt 0.5226 0.4093 0.0000
vt 0.5568 0.3853 0.0000
vt 0.5905 0.4198 0.0000
vt 0.6253 0.4268 0.0000
vt 0.5613 0.2176 0.0000
vt 0.5254 0.1936 0.0000
vt 0.5080 0.1998 0.0000
vt 0.4883 0.2336 0.0000
vt 0.4493 0.1683 0.0000
vt 0.6604 0.1880 0.0000
vt 0.6485 0.4273 0.0000
vt 0.6743 0.1852 0.0000
vt 0.7125 0.3442 0.0000
vt 0.7366 0.1947 0.0000
vt 0.7403 0.2111 0.0000
vt 0.4306 0.2083 0.0000
vt 0.2830 0.3096 0.0000
vt 0.2748 0.3785 0.0000
vt 0.2710 0.1857 0.0000
vt 0.3938 0.1850 0.0000
vt 0.3509 0.1862 0.0000
vt 0.3293 0.1762 0.0000
vt 0.2966 0.1798 0.0000
vt 0.3109 0.4155 0.0000
vt 0.3678 0.4167 0.0000
vt 0.3917 0.4179 0.0000
vt 0.4225 0.3946 0.0000
# 194 texture coords

o Rock_Bed
g Rock_Bed
usemtl Rockbed_Material
s 1
f 1/1/1 2/2/2 3/3/3 4/4/4 
f 5/5/5 6/6/6 7/7/7 8/8/8 
f 2/2/2 9/9/9 10/10/10 3/3/3 
f 11/11/11 12/12/12 13/13/13 14/14/14 
f 4/4/4 11/11/11 14/14/14 1/1/1 
f 13/13/13 12/12/12 15/15/15 16/16/16 
f 16/16/16 15/15/15 17/17/17 18/18/18 
f 18/18/18 17/17/17 19/19/19 20/20/20 
f 9/9/9 5/5/5 8/8/8 10/10/10 
f 21/21/21 22/22/22 23/23/23 24/24/24 
f 25/25/25 26/26/26 27/27/27 28/28/28 
f 29/29/29 25/25/25 28/28/28 30/30/30 
f 22/22/22 29/29/29 30/30/30 23/23/23 
f 31/31/31 7/7/7 6/6/6 32/32/32 
f 24/24/24 31/31/31 32/32/32 21/21/21 
f 8/33/8 7/34/7 33/35/33 34/36/34 
f 14/37/14 13/38/13 35/39/35 36/40/36 
f 10/41/10 8/33/8 34/36/34 37/42/37 
f 4/43/4 3/44/3 38/45/38 39/46/39 
f 11/47/11 4/43/4 39/46/39 40/48/40 
f 12/49/12 11/47/11 40/48/40 41/50/41 
f 1/51/1 14/37/14 36/40/36 42/52/42 
f 2/53/2 1/51/1 42/52/42 43/54/43 
f 9/55/9 2/53/2 43/54/43 44/56/44 
f 6/57/6 5/58/5 45/59/45 46/60/46 
f 13/38/13 16/61/16 47/62/47 35/39/35 
f 15/63/15 12/49/12 41/50/41 48/64/48 
f 16/61/16 18/65/18 49/66/49 47/62/47 
f 17/67/17 15/63/15 48/64/48 50/68/50 
f 18/65/18 20/69/20 51/70/51 49/66/49 
f 19/71/19 17/72/17 50/68/50 52/73/52 
f 20/69/20 19/71/19 52/73/52 51/70/51 
f 3/44/3 10/41/10 37/42/37 38/45/38 
f 5/58/5 9/55/9 44/56/44 45/59/45 
f 32/74/32 6/57/6 46/60/46 53/75/53 
f 28/76/28 27/77/27 54/78/54 55/79/55 
f 27/77/27 26/80/26 56/81/56 54/78/54 
f 21/82/21 32/74/32 53/75/53 57/83/57 
f 22/84/22 21/82/21 57/83/57 58/85/58 
f 29/86/29 22/84/22 58/85/58 59/87/59 
f 25/88/25 29/86/29 59/87/59 60/89/60 
f 26/90/26 25/88/25 60/89/60 56/81/56 
f 30/91/30 28/76/28 55/79/55 61/92/61 
f 23/93/23 30/91/30 61/92/61 62/94/62 
f 24/95/24 23/93/23 62/94/62 63/96/63 
f 31/97/31 24/95/24 63/96/63 64/98/64 
f 7/34/7 31/97/31 64/98/64 33/35/33 
f 65/99/65 66/100/66 67/101/67 68/102/68 
f 69/103/69 70/104/70 71/105/71 72/106/72 
f 73/107/73 69/103/69 72/106/72 74/108/74 
f 75/109/75 73/107/73 74/108/74 76/110/76 
f 77/111/77 75/109/75 76/110/76 78/112/78 
f 79/113/79 77/111/77 78/112/78 80/114/80 
f 65/99/65 79/113/79 80/114/80 66/100/66 
f 67/101/67 81/115/81 82/116/82 68/102/68 
f 81/115/81 83/117/83 84/118/84 82/116/82 
f 83/117/83 85/119/85 86/120/86 84/118/84 
f 85/119/85 87/121/87 88/122/88 86/120/86 
f 87/121/87 89/123/89 90/124/90 88/122/88 
f 89/123/89 91/125/91 92/126/92 90/124/90 
f 93/127/93 94/128/94 95/129/95 96/130/96 
f 91/125/91 93/127/93 96/130/96 92/126/92 
f 33/35/33 97/131/97 98/132/98 34/36/34 
f 35/39/35 99/133/99 100/134/100 36/40/36 
f 34/36/34 98/132/98 101/135/101 37/42/37 
f 38/45/38 102/136/102 103/137/103 39/46/39 
f 39/46/39 103/137/103 104/138/104 40/48/40 
f 40/48/40 104/138/104 105/139/105 41/50/41 
f 36/40/36 100/134/100 106/140/106 42/52/42 
f 42/52/42 106/140/106 107/141/107 43/54/43 
f 43/54/43 107/141/107 108/142/108 44/56/44 
f 45/59/45 109/143/109 110/144/110 46/60/46 
f 47/62/47 111/145/111 99/133/99 35/39/35 
f 41/50/41 105/139/105 112/146/112 48/64/48 
f 49/66/49 113/147/113 111/145/111 47/62/47 
f 48/64/48 112/146/112 114/148/114 50/68/50 
f 51/70/51 115/149/115 113/147/113 49/66/49 
f 50/68/50 114/148/114 116/150/116 52/73/52 
f 52/73/52 116/150/116 115/149/115 51/70/51 
f 37/42/37 101/135/101 102/136/102 38/45/38 
f 44/56/44 108/142/108 109/143/109 45/59/45 
f 46/60/46 110/144/110 117/151/117 53/75/53 
f 54/78/54 118/152/118 119/153/119 55/79/55 
f 56/81/56 120/154/120 118/152/118 54/78/54 
f 53/75/53 117/151/117 121/155/121 57/83/57 
f 57/83/57 121/155/121 122/156/122 58/85/58 
f 58/85/58 122/156/122 123/157/123 59/87/59 
f 59/87/59 123/157/123 124/158/124 60/89/60 
f 60/89/60 124/158/124 120/154/120 56/81/56 
f 55/79/55 119/153/119 125/159/125 61/92/61 
f 61/92/61 125/159/125 126/160/126 62/94/62 
f 62/94/62 126/160/126 127/161/127 63/96/63 
f 63/96/63 127/161/127 128/162/128 64/98/64 
f 64/98/64 128/162/128 97/131/97 33/35/33 
f 97/131/97 129/163/129 130/164/130 98/132/98 
f 99/133/99 131/165/131 132/166/132 100/134/100 
f 98/132/98 130/164/130 133/167/133 101/135/101 
f 102/136/102 134/168/134 135/169/135 103/137/103 
f 103/137/103 135/169/135 136/170/136 104/138/104 
f 104/138/104 136/170/136 137/171/137 105/139/105 
f 100/134/100 132/166/132 138/172/138 106/140/106 
f 106/140/106 138/172/138 139/173/139 107/141/107 
f 107/141/107 139/173/139 140/174/140 108/142/108 
f 109/143/109 141/175/141 142/176/142 110/144/110 
f 111/145/111 143/177/143 131/165/131 99/133/99 
f 105/139/105 137/171/137 144/178/144 112/146/112 
f 113/147/113 145/179/145 143/177/143 111/145/111 
f 112/146/112 144/178/144 146/180/146 114/148/114 
f 115/149/115 147/181/147 145/179/145 113/147/113 
f 114/148/114 146/180/146 148/182/148 116/150/116 
f 116/150/116 148/182/148 147/181/147 115/149/115 
f 101/135/101 133/167/133 134/168/134 102/136/102 
f 108/142/108 140/174/140 141/175/141 109/143/109 
f 110/144/110 142/176/142 149/183/149 117/151/117 
f 118/152/118 150/184/150 151/185/151 119/153/119 
f 120/154/120 152/186/152 150/184/150 118/152/118 
f 117/151/117 149/183/149 153/187/153 121/155/121 
f 121/155/121 153/187/153 154/188/154 122/156/122 
f 122/156/122 154/188/154 155/189/155 123/157/123 
f 123/157/123 155/189/155 156/190/156 124/158/124 
f 124/158/124 156/190/156 152/186/152 120/154/120 
f 119/153/119 151/185/151 157/191/157 125/159/125 
f 125/159/125 157/191/157 158/192/158 126/160/126 
f 126/160/126 158/192/158 159/193/159 127/161/127 
f 127/161/127 159/193/159 160/194/160 128/162/128 
f 128/162/128 160/194/160 129/163/129 97/131/97 
f 129/163/129 65/99/65 68/102/68 130/164/130 
f 131/165/131 89/123/89 87/121/87 132/166/132 
f 130/164/130 68/102/68 82/116/82 133/167/133 
f 134/168/134 84/118/84 86/120/86 135/169/135 
f 135/169/135 86/120/86 88/122/88 136/170/136 
f 136/170/136 88/122/88 90/124/90 137/171/137 
f 132/166/132 87/121/87 85/119/85 138/172/138 
f 138/172/138 85/119/85 83/117/83 139/173/139 
f 139/173/139 83/117/83 81/115/81 140/174/140 
f 141/175/141 67/101/67 66/100/66 142/176/142 
f 143/177/143 91/125/91 89/123/89 131/165/131 
f 137/171/137 90/124/90 92/126/92 144/178/144 
f 145/179/145 93/127/93 91/125/91 143/177/143 
f 144/178/144 92/126/92 96/130/96 146/180/146 
f 147/181/147 94/128/94 93/127/93 145/179/145 
f 146/180/146 96/130/96 95/129/95 148/182/148 
f 148/182/148 95/129/95 94/128/94 147/181/147 
f 133/167/133 82/116/82 84/118/84 134/168/134 
f 140/174/140 81/115/81 67/101/67 141/175/141 
f 142/176/142 66/100/66 80/114/80 149/183/149 
f 150/184/150 70/104/70 69/103/69 151/185/151 
f 152/186/152 71/105/71 70/104/70 150/184/150 
f 149/183/149 80/114/80 78/112/78 153/187/153 
f 153/187/153 78/112/78 76/110/76 154/188/154 
f 154/188/154 76/110/76 74/108/74 155/189/155 
f 155/189/155 74/108/74 72/106/72 156/190/156 
f 156/190/156 72/106/72 71/105/71 152/186/152 
f 151/185/151 69/103/69 73/107/73 157/191/157 
f 157/191/157 73/107/73 75/109/75 158/192/158 
f 158/192/158 75/109/75 77/111/77 159/193/159 
f 159/193/159 77/111/77 79/113/79 160/194/160 
f 160/194/160 79/113/79 65/99/65 129/163/129 
# 158 polygons

