# 3ds Max Wavefront OBJ Exporter v0.97b - (c)2007 guruware
# File Created: 26.06.2018 14:14:24

mtllib Node.mtl

#
# object Node
#

v  12.0546 0.0000 4.3875
v  9.8270 0.0000 8.2458
v  9.8270 0.0000 -0.0000
v  12.8282 0.0000 -0.0000
v  12.0546 0.0000 -4.3875
v  12.0546 1.2580 -4.3875
v  12.8282 1.2580 -0.0000
v  9.8270 0.0000 -8.2458
v  9.8270 1.2580 -8.2458
v  6.4141 0.0000 -11.1096
v  6.4141 1.2580 -11.1096
v  2.2276 0.0000 -12.6334
v  2.2276 1.2580 -12.6334
v  -2.2276 0.0000 -12.6334
v  -2.2276 1.2580 -12.6334
v  -6.4141 0.0000 -11.1096
v  -6.4141 1.2580 -11.1096
v  -9.8270 0.0000 -8.2458
v  -9.8270 1.2580 -8.2458
v  -12.0546 0.0000 -4.3875
v  -12.0546 1.2580 -4.3875
v  -12.8282 0.0000 -0.0000
v  -12.8282 1.2580 -0.0000
v  -12.0546 0.0000 4.3875
v  -12.0546 1.2580 4.3875
v  -9.8270 0.0000 8.2458
v  -9.8270 1.2580 8.2458
v  -6.4141 0.0000 11.1096
v  -6.4141 1.2580 11.1096
v  -2.2276 0.0000 12.6334
v  -2.2276 1.2580 12.6334
v  2.2276 0.0000 12.6334
v  2.2276 1.2580 12.6334
v  6.4141 0.0000 11.1096
v  6.4141 1.2580 11.1096
v  9.8270 1.2580 8.2458
v  12.0546 1.2580 4.3875
v  9.8270 1.2580 -0.0000
v  -6.4141 1.2580 -0.0000
v  -2.2276 1.2580 -0.0000
v  2.2276 1.2580 -0.0000
v  6.4141 1.2580 0.0000
v  -9.8270 1.2580 -0.0000
v  -6.4141 0.0000 -0.0000
v  -2.2276 0.0000 -0.0000
v  2.2276 0.0000 -0.0000
v  6.4141 0.0000 -0.0000
v  -9.8270 0.0000 -0.0000
# 48 vertices

vn 0.6975 -0.6701 0.2539
vn 0.5687 -0.6700 0.4772
vn 0.0000 -1.0000 -0.0000
vn 0.7423 -0.6701 0.0000
vn 0.6975 -0.6701 -0.2539
vn 0.6975 0.6701 -0.2539
vn 0.7423 0.6701 0.0000
vn 0.5686 -0.6701 -0.4771
vn 0.5686 0.6701 -0.4771
vn 0.3711 -0.6701 -0.6429
vn 0.3711 0.6701 -0.6429
vn 0.1289 -0.6700 -0.7311
vn 0.1289 0.6700 -0.7311
vn -0.1289 -0.6701 -0.7310
vn -0.1289 0.6701 -0.7310
vn -0.3712 -0.6701 -0.6428
vn -0.3712 0.6701 -0.6428
vn -0.5687 -0.6700 -0.4772
vn -0.5687 0.6700 -0.4772
vn -0.6975 -0.6701 -0.2539
vn -0.6975 0.6701 -0.2539
vn -0.7423 -0.6701 0.0000
vn -0.7423 0.6701 0.0000
vn -0.6976 -0.6700 0.2539
vn -0.6976 0.6700 0.2539
vn -0.5687 -0.6700 0.4772
vn -0.5687 0.6700 0.4772
vn -0.3712 -0.6701 0.6428
vn -0.3712 0.6701 0.6428
vn -0.1289 -0.6701 0.7310
vn -0.1289 0.6701 0.7310
vn 0.1289 -0.6700 0.7311
vn 0.1289 0.6700 0.7311
vn 0.3712 -0.6700 0.6429
vn 0.3712 0.6700 0.6429
vn 0.5687 0.6700 0.4772
vn 0.6975 0.6701 0.2539
vn 0.0000 1.0000 -0.0000
# 38 vertex normals

vt 0.7141 0.8211 0.0000
vt 0.6741 0.8892 0.0000
vt 0.6752 0.7430 0.0000
vt 0.7284 0.7434 0.0000
vt 0.7454 0.2845 0.0000
vt 0.7275 0.3696 0.0000
vt 0.7115 0.3562 0.0000
vt 0.7265 0.2816 0.0000
vt 0.6832 0.4420 0.0000
vt 0.6719 0.4211 0.0000
vt 0.6232 0.4917 0.0000
vt 0.6124 0.4685 0.0000
vt 0.5429 0.5179 0.0000
vt 0.5404 0.4928 0.0000
vt 0.4623 0.5173 0.0000
vt 0.4644 0.4909 0.0000
vt 0.3842 0.4834 0.0000
vt 0.3936 0.4632 0.0000
vt 0.3182 0.4259 0.0000
vt 0.3365 0.4129 0.0000
vt 0.2783 0.3492 0.0000
vt 0.3001 0.3462 0.0000
vt 0.2666 0.2709 0.0000
vt 0.2887 0.2710 0.0000
vt 0.2795 0.1933 0.0000
vt 0.3038 0.1964 0.0000
vt 0.3264 0.1200 0.0000
vt 0.3434 0.1315 0.0000
vt 0.3907 0.0669 0.0000
vt 0.4028 0.0841 0.0000
vt 0.4736 0.0348 0.0000
vt 0.4749 0.0598 0.0000
vt 0.5551 0.0376 0.0000
vt 0.5509 0.0617 0.0000
vt 0.6261 0.0672 0.0000
vt 0.6217 0.0894 0.0000
vt 0.6946 0.1238 0.0000
vt 0.6787 0.1397 0.0000
vt 0.7333 0.2019 0.0000
vt 0.7151 0.2065 0.0000
vt 0.6753 0.2804 0.0000
vt 0.3982 0.2736 0.0000
vt 0.4696 0.2754 0.0000
vt 0.5456 0.2772 0.0000
vt 0.6171 0.2790 0.0000
vt 0.3399 0.2722 0.0000
vt 0.4597 0.9653 0.0000
vt 0.3857 0.9378 0.0000
vt 0.3872 0.7408 0.0000
vt 0.4614 0.7413 0.0000
vt 0.5387 0.9660 0.0000
vt 0.5404 0.7419 0.0000
vt 0.6131 0.9395 0.0000
vt 0.6147 0.7425 0.0000
vt 0.3255 0.8865 0.0000
vt 0.3267 0.7403 0.0000
vt 0.2866 0.8178 0.0000
vt 0.2734 0.7399 0.0000
vt 0.2878 0.6622 0.0000
vt 0.3278 0.5941 0.0000
vt 0.3887 0.5437 0.0000
vt 0.6162 0.5455 0.0000
vt 0.6763 0.5967 0.0000
vt 0.7153 0.6655 0.0000
# 64 texture coords

o Node
g Node
usemtl wire_086086086
s 1
f 1/1/1 2/2/2 3/3/3 4/4/4 
s 8
f 4/5/4 5/6/5 6/7/6 7/8/7 
f 5/6/5 8/9/8 9/10/9 6/7/6 
f 8/9/8 10/11/10 11/12/11 9/10/9 
f 10/11/10 12/13/12 13/14/13 11/12/11 
f 12/13/12 14/15/14 15/16/15 13/14/13 
f 14/15/14 16/17/16 17/18/17 15/16/15 
f 16/17/16 18/19/18 19/20/19 17/18/17 
f 18/19/18 20/21/20 21/22/21 19/20/19 
f 20/21/20 22/23/22 23/24/23 21/22/21 
f 22/23/22 24/25/24 25/26/25 23/24/23 
f 24/25/24 26/27/26 27/28/27 25/26/25 
f 26/27/26 28/29/28 29/30/29 27/28/27 
f 28/29/28 30/31/30 31/32/31 29/30/29 
f 30/31/30 32/33/32 33/34/33 31/32/31 
f 32/33/32 34/35/34 35/36/35 33/34/33 
f 34/35/34 2/37/2 36/38/36 35/36/35 
f 2/37/2 1/39/1 37/40/37 36/38/36 
f 1/39/1 4/5/4 7/8/7 37/40/37 
s 1
f 7/8/7 6/7/6 9/10/9 38/41/38 
f 15/16/15 17/18/17 39/42/38 40/43/38 
f 13/14/13 15/16/15 40/43/38 41/44/38 
f 11/12/11 13/14/13 41/44/38 42/45/38 
f 9/10/9 11/12/11 42/45/38 38/41/38 
f 17/18/17 19/20/19 43/46/38 39/42/38 
f 19/20/19 21/22/21 23/24/23 43/46/38 
f 23/24/23 25/26/25 27/28/27 43/46/38 
f 43/46/38 27/28/27 29/30/29 39/42/38 
f 39/42/38 29/30/29 31/32/31 40/43/38 
f 40/43/38 31/32/31 33/34/33 41/44/38 
f 41/44/38 33/34/33 35/36/35 42/45/38 
f 42/45/38 35/36/35 36/38/36 38/41/38 
f 38/41/38 36/38/36 37/40/37 7/8/7 
f 30/47/30 28/48/28 44/49/3 45/50/3 
f 32/51/32 30/47/30 45/50/3 46/52/3 
f 34/53/34 32/51/32 46/52/3 47/54/3 
f 2/2/2 34/53/34 47/54/3 3/3/3 
f 28/48/28 26/55/26 48/56/3 44/49/3 
f 26/55/26 24/57/24 22/58/22 48/56/3 
f 22/58/22 20/59/20 18/60/18 48/56/3 
f 48/56/3 18/60/18 16/61/16 44/49/3 
f 44/49/3 16/61/16 14/15/14 45/50/3 
f 45/50/3 14/15/14 12/13/12 46/52/3 
f 46/52/3 12/13/12 10/62/10 47/54/3 
f 47/54/3 10/62/10 8/63/8 3/3/3 
f 3/3/3 8/63/8 5/64/5 4/4/4 
# 46 polygons

