# 3ds Max Wavefront OBJ Exporter v0.97b - (c)2007 guruware
# File Created: 29.07.2018 14:30:08

mtllib model_DeadEndE.mtl

#
# object Dead_End_E
#

v  9.4658 -1.4844 6.1961
v  10.8880 -1.4844 6.0330
v  10.8880 1.4842 6.0330
v  9.4658 1.4842 6.1961
v  12.1939 -1.4844 5.5683
v  12.1939 1.4842 5.5683
v  13.3464 -1.4844 4.8386
v  13.3464 1.4842 4.8386
v  14.3078 -1.4844 3.8809
v  14.3078 1.4841 3.8809
v  15.0409 -1.4844 2.7319
v  15.0409 1.4841 2.7319
v  15.5081 -1.4844 1.4285
v  15.5081 1.4841 1.4285
v  15.6722 -1.4845 0.0073
v  15.6722 1.4841 0.0073
v  15.5090 -1.4844 -1.4105
v  15.5090 1.4841 -1.4105
v  15.0440 -1.4844 -2.7116
v  15.0440 1.4841 -2.7116
v  14.3145 -1.4844 -3.8594
v  14.3145 1.4842 -3.8594
v  13.3575 -1.4843 -4.8174
v  13.3575 1.4842 -4.8174
v  12.2102 -1.4843 -5.5489
v  12.2102 1.4842 -5.5489
v  10.9097 -1.4843 -6.0171
v  10.9097 1.4843 -6.0171
v  9.4930 -1.4843 -6.1856
v  9.4930 1.4843 -6.1856
v  -15.6722 -1.4841 -6.1963
v  -15.6722 1.4845 -6.1963
v  -15.6722 -1.4841 6.1963
v  -15.6722 1.4845 6.1963
# 34 vertices

vn 0.0411 -0.6944 0.7184
vn 0.1652 -0.6825 0.7120
vn 0.1653 0.6824 0.7121
vn 0.0411 0.6945 0.7183
vn 0.3198 -0.6829 0.6568
vn 0.3198 0.6830 0.6567
vn 0.4556 -0.6834 0.5705
vn 0.4557 0.6833 0.5705
vn 0.5688 -0.6833 0.4578
vn 0.5689 0.6833 0.4578
vn 0.6559 -0.6828 0.3218
vn 0.6559 0.6828 0.3217
vn 0.7120 -0.6822 0.1664
vn 0.7119 0.6823 0.1664
vn 0.7311 -0.6823 0.0001
vn 0.7312 0.6822 0.0001
vn 0.7120 -0.6823 -0.1659
vn 0.7120 0.6823 -0.1659
vn 0.6563 -0.6829 -0.3208
vn 0.6563 0.6829 -0.3208
vn 0.5697 -0.6834 -0.4565
vn 0.5698 0.6833 -0.4565
vn 0.4572 -0.6834 -0.5692
vn 0.4572 0.6834 -0.5692
vn 0.3220 -0.6831 -0.6556
vn 0.3220 0.6830 -0.6556
vn 0.1681 -0.6824 -0.7114
vn 0.1680 0.6825 -0.7113
vn 0.0427 -0.6941 -0.7186
vn 0.0427 0.6941 -0.7186
vn -0.5772 -0.5773 -0.5775
vn -0.5772 0.5773 -0.5775
vn -0.5774 -0.5773 0.5773
vn -0.5773 0.5774 0.5774
# 34 vertex normals

vt 0.3810 0.1078 0.0000
vt 0.3810 0.0880 0.0000
vt 0.4225 0.0880 0.0000
vt 0.4225 0.1078 0.0000
vt 0.3810 0.0697 0.0000
vt 0.4225 0.0697 0.0000
vt 0.3810 0.0536 0.0000
vt 0.4225 0.0536 0.0000
vt 0.3810 0.0402 0.0000
vt 0.4225 0.0402 0.0000
vt 0.4548 0.9196 0.0000
vt 0.4709 0.9299 0.0000
vt 0.4707 0.9799 0.0000
vt 0.4549 0.9799 0.0000
vt 0.4891 0.9364 0.0000
vt 0.4892 0.9799 0.0000
vt 0.5090 0.9387 0.0000
vt 0.5090 0.9798 0.0000
vt 0.5288 0.9364 0.0000
vt 0.5286 0.9801 0.0000
vt 0.5470 0.9299 0.0000
vt 0.5468 0.9801 0.0000
vt 0.5630 0.9197 0.0000
vt 0.5628 0.9801 0.0000
vt 0.5764 0.9063 0.0000
vt 0.5762 0.9801 0.0000
vt 0.6371 0.0535 0.0000
vt 0.6371 0.0695 0.0000
vt 0.5956 0.0695 0.0000
vt 0.5956 0.0535 0.0000
vt 0.6371 0.0877 0.0000
vt 0.5956 0.0877 0.0000
vt 0.6371 0.1075 0.0000
vt 0.5956 0.1075 0.0000
vt 0.6371 0.4592 0.0000
vt 0.5957 0.4592 0.0000
vt 0.5957 0.5007 0.0000
vt 0.4225 0.5007 0.0000
vt 0.4225 0.4592 0.0000
vt 0.3810 0.4592 0.0000
vt 0.5955 0.8523 0.0000
vt 0.4225 0.8519 0.0000
vt 0.5932 0.8721 0.0000
vt 0.4248 0.8718 0.0000
vt 0.5866 0.8903 0.0000
vt 0.4313 0.8901 0.0000
vt 0.4415 0.9062 0.0000
vt 0.4248 0.0880 0.0000
vt 0.5932 0.0877 0.0000
vt 0.5866 0.0695 0.0000
vt 0.4313 0.0697 0.0000
vt 0.5764 0.0535 0.0000
vt 0.4415 0.0536 0.0000
vt 0.5630 0.0401 0.0000
vt 0.4549 0.0402 0.0000
vt 0.5470 0.0299 0.0000
vt 0.5288 0.0234 0.0000
vt 0.5090 0.0211 0.0000
vt 0.4891 0.0234 0.0000
vt 0.4709 0.0299 0.0000
# 60 texture coords

o Dead_End_E
g Dead_End_E
usemtl Dead_End_Material
s 1
f 1/1/1 2/2/2 3/3/3 4/4/4 
s 3
f 2/2/2 5/5/5 6/6/6 3/3/3 
s 2
f 5/5/5 7/7/7 8/8/8 6/6/6 
f 7/7/7 9/9/9 10/10/10 8/8/8 
f 9/11/9 11/12/11 12/13/12 10/14/10 
f 11/12/11 13/15/13 14/16/14 12/13/12 
f 13/15/13 15/17/15 16/18/16 14/16/14 
f 15/17/15 17/19/17 18/20/18 16/18/16 
f 17/19/17 19/21/19 20/22/20 18/20/18 
f 19/21/19 21/23/21 22/24/22 20/22/20 
f 21/23/21 23/25/23 24/26/24 22/24/22 
f 23/27/23 25/28/25 26/29/26 24/30/24 
f 25/28/25 27/31/27 28/32/28 26/29/26 
f 27/31/27 29/33/29 30/34/30 28/32/28 
s 4
f 29/33/29 31/35/31 32/36/32 30/34/30 
s 2
f 31/37/31 33/38/33 34/39/34 32/36/32 
s 4
f 33/40/33 1/1/1 4/4/4 34/39/34 
s 16
f 29/41/29 1/42/1 33/38/33 31/37/31 
f 29/41/29 27/43/27 2/44/2 1/42/1 
f 25/45/25 5/46/5 2/44/2 27/43/27 
f 23/25/23 7/47/7 5/46/5 25/45/25 
f 21/23/21 9/11/9 7/47/7 23/25/23 
f 19/21/19 17/19/17 9/11/9 21/23/21 
f 15/17/15 13/15/13 9/11/9 17/19/17 
f 11/12/11 9/11/9 13/15/13 
f 30/34/30 32/36/32 34/39/34 4/4/4 
f 30/34/30 4/4/4 3/48/3 28/49/28 
f 26/50/26 28/49/28 3/48/3 6/51/6 
f 24/52/24 26/50/26 6/51/6 8/53/8 
f 22/54/22 24/52/24 8/53/8 10/55/10 
f 20/56/20 22/54/22 10/55/10 18/57/18 
f 16/58/16 18/57/18 10/55/10 14/59/14 
f 12/60/12 14/59/14 10/55/10 
# 31 polygons - 2 triangles

